<svg id="visual" viewBox="0 0 900 600" width="900" height="600" xmlns="http://www.w3.org/2000/svg" xmlns:xlink="http://www.w3.org/1999/xlink" version="1.1"><path d="M0 175L18.8 167C37.7 159 75.3 143 112.8 143C150.3 143 187.7 159 225.2 160C262.7 161 300.3 147 337.8 143C375.3 139 412.7 145 450.2 146C487.7 147 525.3 143 562.8 146C600.3 149 637.7 159 675.2 157C712.7 155 750.3 141 787.8 134C825.3 127 862.7 127 881.3 127L900 127L900 0L881.3 0C862.7 0 825.3 0 787.8 0C750.3 0 712.7 0 675.2 0C637.7 0 600.3 0 562.8 0C525.3 0 487.7 0 450.2 0C412.7 0 375.3 0 337.8 0C300.3 0 262.7 0 225.2 0C187.7 0 150.3 0 112.8 0C75.3 0 37.7 0 18.8 0L0 0Z" fill="#0044bc"></path><path d="M0 391L18.8 386C37.7 381 75.3 371 112.8 369C150.3 367 187.7 373 225.2 367C262.7 361 300.3 343 337.8 345C375.3 347 412.7 369 450.2 378C487.7 387 525.3 383 562.8 376C600.3 369 637.7 359 675.2 363C712.7 367 750.3 385 787.8 382C825.3 379 862.7 355 881.3 343L900 331L900 125L881.3 125C862.7 125 825.3 125 787.8 132C750.3 139 712.7 153 675.2 155C637.7 157 600.3 147 562.8 144C525.3 141 487.7 145 450.2 144C412.7 143 375.3 137 337.8 141C300.3 145 262.7 159 225.2 158C187.7 157 150.3 141 112.8 141C75.3 141 37.7 157 18.8 165L0 173Z" fill="#015bff"></path><path d="M0 601L18.8 601C37.7 601 75.3 601 112.8 601C150.3 601 187.7 601 225.2 601C262.7 601 300.3 601 337.8 601C375.3 601 412.7 601 450.2 601C487.7 601 525.3 601 562.8 601C600.3 601 637.7 601 675.2 601C712.7 601 750.3 601 787.8 601C825.3 601 862.7 601 881.3 601L900 601L900 329L881.3 341C862.7 353 825.3 377 787.8 380C750.3 383 712.7 365 675.2 361C637.7 357 600.3 367 562.8 374C525.3 381 487.7 385 450.2 376C412.7 367 375.3 345 337.8 343C300.3 341 262.7 359 225.2 365C187.7 371 150.3 365 112.8 367C75.3 369 37.7 379 18.8 384L0 389Z" fill="#6290ff"></path></svg>